<svg id="Layer_1" data-name="Layer 1" xmlns="http://www.w3.org/2000/svg" viewBox="0 0 870.99 870.99"><defs><style>.cls-1{fill:#93278f;stroke:#74006c;stroke-width:28px;}.cls-1,.cls-2,.cls-3{stroke-miterlimit:10;}.cls-2,.cls-3,.cls-4{fill:#fff;}.cls-2,.cls-3{stroke:#fff;}.cls-3{stroke-width:1px;}</style></defs><title>Logo UDS</title><rect class="cls-1" x="14" y="14" width="842.99" height="842.99" rx="168.69"/><path class="cls-2" d="M6990.66,7397.43c-.2-.18-.4-.38-.59-.58l-.38-.37q.2.17.39.36Z" transform="translate(-6766.35 -6764.9)"/><path class="cls-2" d="M7084.45,7302.94l-.24-.23c-.12-.12-.24-.24-.35-.37l.36.36A2.61,2.61,0,0,1,7084.45,7302.94Z" transform="translate(-6766.35 -6764.9)"/><path class="cls-2" d="M7110.48,7277.37l-.46-.47-.3-.3c.11.09.21.19.31.29S7110.35,7277.21,7110.48,7277.37Z" transform="translate(-6766.35 -6764.9)"/><path class="cls-2" d="M7324.56,7063.31c-.17-.15-.33-.31-.48-.47s-.39-.39-.58-.59l.59.58Z" transform="translate(-6766.35 -6764.9)"/><path class="cls-2" d="M7350.35,7037.5l-.47-.46-.34-.35a3.73,3.73,0,0,1,.35.34Z" transform="translate(-6766.35 -6764.9)"/><path class="cls-2" d="M7444.63,6943.48c-.21-.2-.41-.39-.6-.59l-.6-.62c.21.2.41.41.61.61S7444.44,6943.28,7444.63,6943.48Z" transform="translate(-6766.35 -6764.9)"/><path class="cls-2" d="M7206.35,7185l-2.23-2.23-2.28-2.28c.47.43.95.87,1.41,1.32,0,0,0,0,0,0,.3.3.6.59.89.89s.62.62.93.94a0,0,0,0,0,0,0C7205.53,7184.14,7206,7184.58,7206.35,7185Z" transform="translate(-6766.35 -6764.9)"/><path class="cls-2" d="M7231.58,7158.58c-.39-.36-.78-.73-1.16-1.11h0l-.47-.47-.61-.63-.06,0h0l-.93-1Z" transform="translate(-6766.35 -6764.9)"/><path class="cls-2" d="M7409.12,7387.8l-1.51-1.51c-.38-.42-.79-.83-1.21-1.21l-1.51-1.51A31.31,31.31,0,0,1,7409.12,7387.8Z" transform="translate(-6766.35 -6764.9)"/><path class="cls-2" d="M7435.45,7362.45l-5.21-5.21A67.4,67.4,0,0,1,7435.45,7362.45Z" transform="translate(-6766.35 -6764.9)"/><polyline class="cls-2" points="463.61 392.07 463.6 392.08 463.58 392.1"/><polyline class="cls-2" points="437.82 417.86 437.78 417.9 437.77 417.91"/><line class="cls-2" x1="583.54" y1="272.14" x2="583.53" y2="272.15"/><line class="cls-2" x1="557.74" y1="297.94" x2="557.73" y2="297.95"/><line class="cls-2" x1="677.69" y1="177.99" x2="677.68" y2="178"/><line class="cls-2" x1="317.87" y1="537.81" x2="317.86" y2="537.82"/><line class="cls-2" x1="343.68" y1="512" x2="343.67" y2="512.01"/><line class="cls-2" x1="223.73" y1="631.95" x2="223.72" y2="631.96"/><path class="cls-2" d="M6990.66,7397.43c-.2-.18-.4-.38-.59-.58l-.38-.37q.2.17.39.36Z" transform="translate(-6766.35 -6764.9)"/><path class="cls-2" d="M7084.45,7302.94l-.24-.23c-.12-.12-.24-.24-.35-.37l.36.36A2.61,2.61,0,0,1,7084.45,7302.94Z" transform="translate(-6766.35 -6764.9)"/><path class="cls-2" d="M7475.2,6930a18.26,18.26,0,0,1-30.53,13.51s0,0,0,0c-.19-.2-.38-.4-.59-.6s-.4-.41-.61-.61a66.58,66.58,0,0,0-93.89,94.42l.34.35.47.46a18.25,18.25,0,0,1-25.79,25.81l-.47-.48-.59-.58a66.58,66.58,0,0,0-95.18,93.07l.93,1h0l.06,0,.61.63.47.47h0c.38.38.77.75,1.16,1.11l203.87,203.87a66.57,66.57,0,0,1-9.65,97.67l-.12.09-2.41,1.72-.21.14a66.61,66.61,0,0,1-83.67-7.5h0l-1.25-1.25h0a18.32,18.32,0,0,1,25.85-25.89s0,0,0,0c.4.43.82.85,1.25,1.25t0,0a30,30,0,0,0,43.84-40.92,31.31,31.31,0,0,0-4.23-4.23L7206.35,7185c-.4-.45-.82-.89-1.24-1.33a0,0,0,0,1,0,0c-.31-.32-.61-.63-.93-.94s-.59-.59-.89-.89c0,0,0,0,0,0-.46-.45-.94-.89-1.41-1.32a66.58,66.58,0,0,0-92.42,95.78q.15.14.3.3l.3.3.46.47a18.25,18.25,0,0,1-25.8,25.79l-.23-.22a2.61,2.61,0,0,0-.23-.24l-.36-.36a66.58,66.58,0,0,0-94.17,94.14l.38.37c.19.2.39.4.59.58,0,0,0,0,0,0a18.26,18.26,0,0,1-26.43,25.19h0a357.5,357.5,0,0,1,504.9-506.25l.07.06.61.61.63.63.06.07A18.19,18.19,0,0,1,7475.2,6930Z" transform="translate(-6766.35 -6764.9)"/><path class="cls-2" d="M6990.66,7397.43c-.2-.18-.4-.38-.59-.58l-.38-.37q.2.17.39.36Z" transform="translate(-6766.35 -6764.9)"/><path class="cls-2" d="M7110.48,7277.37l-.46-.47-.3-.3c.11.09.21.19.31.29S7110.35,7277.21,7110.48,7277.37Z" transform="translate(-6766.35 -6764.9)"/><path class="cls-2" d="M7206.35,7185l-2.23-2.23-2.28-2.28c.47.43.95.87,1.41,1.32,0,0,0,0,0,0,.3.3.6.59.89.89s.62.62.93.94a0,0,0,0,0,0,0C7205.53,7184.14,7206,7184.58,7206.35,7185Z" transform="translate(-6766.35 -6764.9)"/><path class="cls-2" d="M7084.45,7302.94l-.24-.23c-.12-.12-.24-.24-.35-.37l.36.36A2.61,2.61,0,0,1,7084.45,7302.94Z" transform="translate(-6766.35 -6764.9)"/><path class="cls-2" d="M7110.48,7277.37l-.46-.47-.3-.3c.11.09.21.19.31.29S7110.35,7277.21,7110.48,7277.37Z" transform="translate(-6766.35 -6764.9)"/><path class="cls-2" d="M7350.35,7037.5l-.47-.46-.34-.35a3.73,3.73,0,0,1,.35.34Z" transform="translate(-6766.35 -6764.9)"/><path class="cls-2" d="M7444.63,6943.48c-.21-.2-.41-.39-.6-.59l-.6-.62c.21.2.41.41.61.61S7444.44,6943.28,7444.63,6943.48Z" transform="translate(-6766.35 -6764.9)"/><path class="cls-2" d="M7444.63,6943.48c-.21-.2-.41-.39-.6-.59l-.6-.62c.21.2.41.41.61.61S7444.44,6943.28,7444.63,6943.48Z" transform="translate(-6766.35 -6764.9)"/><path class="cls-2" d="M7470.46,6917.72l-.63-.63-.61-.61.62.6C7470.06,6917.29,7470.26,6917.5,7470.46,6917.72Z" transform="translate(-6766.35 -6764.9)"/><path class="cls-2" d="M7205.1,7183.69c-.34-.29-.66-.59-1-.9a12.31,12.31,0,0,1-.85-.93c.3.3.6.59.89.89S7204.79,7183.37,7205.1,7183.69Z" transform="translate(-6766.35 -6764.9)"/><path class="cls-2" d="M7230.4,7157.46l-.47-.47-.61-.63.63.61A5.12,5.12,0,0,1,7230.4,7157.46Z" transform="translate(-6766.35 -6764.9)"/><path class="cls-2" d="M7231.58,7158.58c-.39-.36-.78-.73-1.16-1.11h0l-.47-.47-.61-.63-.06,0h0l-.93-1Z" transform="translate(-6766.35 -6764.9)"/><path class="cls-2" d="M7324.56,7063.31c-.17-.15-.33-.31-.48-.47s-.39-.39-.58-.59l.59.58Z" transform="translate(-6766.35 -6764.9)"/><path class="cls-2" d="M7409.12,7387.8l-1.51-1.51c-.38-.42-.79-.83-1.21-1.21l-1.51-1.51A31.31,31.31,0,0,1,7409.12,7387.8Z" transform="translate(-6766.35 -6764.9)"/><path class="cls-2" d="M7435.45,7362.45l-5.21-5.21A67.4,67.4,0,0,1,7435.45,7362.45Z" transform="translate(-6766.35 -6764.9)"/><path class="cls-2" d="M7324.56,7063.31c-.17-.15-.33-.31-.48-.47s-.39-.39-.58-.59l.59.58Z" transform="translate(-6766.35 -6764.9)"/><path class="cls-2" d="M7350.35,7037.5l-.47-.46-.34-.35a3.73,3.73,0,0,1,.35.34Z" transform="translate(-6766.35 -6764.9)"/><path class="cls-2" d="M7206.35,7185l-2.23-2.23-2.28-2.28c.47.43.95.87,1.41,1.32,0,0,0,0,0,0,.3.3.6.59.89.89s.62.62.93.94a0,0,0,0,0,0,0C7205.53,7184.14,7206,7184.58,7206.35,7185Z" transform="translate(-6766.35 -6764.9)"/><path class="cls-2" d="M7231.58,7158.58c-.39-.36-.78-.73-1.16-1.11h0l-.47-.47-.61-.63-.06,0h0l-.93-1Z" transform="translate(-6766.35 -6764.9)"/><path class="cls-2" d="M7409.12,7387.8l-1.51-1.51c-.38-.42-.79-.83-1.21-1.21l-1.51-1.51A31.31,31.31,0,0,1,7409.12,7387.8Z" transform="translate(-6766.35 -6764.9)"/><path class="cls-3" d="M7409.12,7387.8l-1.51-1.51c-.38-.42-.79-.83-1.21-1.21l-1.51-1.51A31.31,31.31,0,0,1,7409.12,7387.8Z" transform="translate(-6766.35 -6764.9)"/><path class="cls-4" d="M7153.72,7594.34v-98.47c0-2.59,0-2.59,2.5-2.59,18.16,0,36.32-.07,54.48.2a109,109,0,0,1,17.34,1.87q14.7,2.58,21.9,15.94,15.93,29.55,3,60.38c-3,7.11-7.24,13.46-14.4,17.25a41.31,41.31,0,0,1-15,4.39,156,156,0,0,1-16.16,1.06c-17.32.14-34.64.06-51.95.07C7155,7594.44,7154.48,7594.39,7153.72,7594.34Zm26.85-21.44h26.27c9.56,0,23.92-8,23.71-29.06,0-22.75-17.53-27.92-25-27.92l-25,.07Z" transform="translate(-6766.35 -6764.9)"/><path class="cls-4" d="M7265.56,7574.38c.88-.05,1.47-.1,2.06-.1l53.21.08a23.57,23.57,0,0,0,10.69-2c3.6-1.79,5.13-4.19,4.85-7.85s-2.45-6.21-5.83-7.52a12.65,12.65,0,0,0-4.41-.74c-8.89-.07-17.79.08-26.69-.08a54.8,54.8,0,0,1-10.53-1.19c-13.08-2.83-22.24-13.44-23.7-27.1a38.05,38.05,0,0,1,1-13.77c2.91-11.25,10.56-17.36,21.62-19.25a108.71,108.71,0,0,1,17.38-1.46c19.48-.17,39-.06,58.44-.06h2.3c-.66,1-1.06,1.65-1.49,2.27-3.81,5.55-7.59,11.12-11.48,16.61a3.32,3.32,0,0,1-2.27,1.28c-15.09,0-30.18-.1-45.27-.05a22.81,22.81,0,0,0-7.06,1.12c-5.12,1.73-7,6.85-4.66,11.71a7.05,7.05,0,0,0,6.1,4.15c3.83.29,7.67.43,11.51.54,8.65.24,17.34,0,25.94.74,10.92.94,19.52,6.22,24,16.52,5.77,13.22,4.27,25.83-4.73,37.26-3.89,5-9.37,7.22-15.5,7.88a143.8,143.8,0,0,1-14.35,1.05c-19.6.12-39.2.05-58.8.05-2.37,0-2.37,0-2.37-2.34Z" transform="translate(-6766.35 -6764.9)"/><path class="cls-4" d="M7046.79,7526.5c0-10.34,0-20.68,0-31,0-1.71.42-2.26,2.19-2.24q11.28.15,22.55,0c1.79,0,2.17.6,2.17,2.27,0,19.66-.07,39.32.09,59a33.48,33.48,0,0,0,1.57,9c1.75,6,6.7,8.44,12.17,9.78a31,31,0,0,0,18.09-.91c6.73-2.42,10.48-7.23,11.22-14.29a122.29,122.29,0,0,0,.79-12.39c.09-16.65,0-33.31,0-50,0-2.44,0-2.44,2.47-2.44,7.45,0,14.91.05,22.36,0,1.62,0,2,.48,2,2-.05,19.36.07,38.72-.11,58.08a73.66,73.66,0,0,1-1.65,15.18c-2.69,12.06-10.44,19.66-22.1,23.47-7.57,2.47-15.4,3.12-23.28,3.26-9.27.17-18.55,0-27.44-3.08a60.56,60.56,0,0,1-9.54-4.22c-7.3-4-11-10.59-12-18.66-.79-6.66-1.28-13.38-1.51-20.09C7046.59,7541.66,7046.79,7534.08,7046.79,7526.5Z" transform="translate(-6766.35 -6764.9)"/></svg>